# Blender v2.81 (sub 16) OBJ File: 'polytopia_Models.blend'
# www.blender.org
mtllib game.mtl
o Cube_Cube.020
v -0.064697 2.885736 0.412153
v -0.330607 2.315202 -0.314904
v -0.330607 2.315202 -0.158485
v -0.330607 2.885851 -0.158485
v 0.240042 2.315202 -0.314904
v -0.330607 2.885851 -0.314904
v 0.240042 2.315202 -0.158485
v 0.240042 2.885851 -0.158485
v 0.240042 2.885851 -0.314904
vt 0.625000 0.000000
vt 0.625000 0.250000
vt 0.375000 0.250000
vt 0.875000 0.500000
vt 0.625000 0.500000
vt 0.625000 0.500000
vt 0.875000 0.500000
vt 0.375000 0.500000
vt 0.375000 0.750000
vt 0.375000 0.250000
vt 0.625000 0.250000
vt 0.375000 0.500000
vt 0.125000 0.500000
vt 0.125000 0.750000
vt 0.625000 0.750000
vt 0.125000 0.500000
vn -0.9064 0.0000 0.4224
vn 0.0000 1.0000 0.0000
vn 0.8821 0.0000 0.4711
vn 0.0000 0.0000 -1.0000
vn 0.0000 -0.7072 0.7070
vn 0.0000 1.0000 0.0002
vn -1.0000 0.0000 0.0000
vn 1.0000 0.0000 0.0000
vn 0.0000 -1.0000 0.0000
usemtl Material
s off
f 1/1/1 4/2/1 3/3/1
f 4/4/2 8/5/2 9/6/2 6/7/2
f 7/8/3 8/5/3 1/9/3
f 2/10/4 6/11/4 9/6/4 5/12/4
f 3/13/5 7/8/5 1/14/5
f 8/5/6 4/4/6 1/15/6
f 3/3/7 4/2/7 6/11/7 2/10/7
f 8/5/8 7/8/8 5/12/8 9/6/8
f 7/8/9 3/13/9 2/16/9 5/12/9
