# Blender v2.81 (sub 16) OBJ File: 'polytopia_Models.blend'
# www.blender.org
mtllib whale.mtl
o Icosphere.001_Icosphere.006
v 0.378752 1.484118 -0.019674
v 0.664505 1.702415 0.521056
v 0.269607 1.702415 0.855253
v 0.025540 1.702415 -0.019674
v 0.269607 1.702415 -0.894601
v 0.664505 1.702415 -0.560404
v 0.487898 2.055629 0.855253
v 0.092999 2.055629 0.521056
v 0.092999 2.055629 -0.560404
v 0.487898 2.055629 -0.894601
v 0.731965 2.055629 -0.019674
v 0.378752 2.273926 -0.019674
v -0.422594 1.533667 -0.019674
v -0.235318 1.676734 0.334708
v -0.494125 1.676734 0.553733
v -0.654081 1.676734 -0.019674
v -0.494125 1.676734 -0.593080
v -0.235318 1.676734 -0.374056
v -0.351062 1.908222 0.553733
v -0.609869 1.908222 0.334708
v -0.609869 1.908222 -0.374056
v -0.351062 1.908222 -0.593080
v -0.191107 1.908222 -0.019674
v -0.422594 2.051289 -0.019674
vt 0.818181 0.000000
vt 0.727272 0.157461
vt 0.909090 0.157461
vt 0.636363 0.000000
vt 0.545454 0.157461
vt 0.090909 0.000000
vt 0.000000 0.157461
vt 0.181818 0.157461
vt 0.272727 0.000000
vt 0.363636 0.157461
vt 0.454545 0.000000
vt 0.636363 0.314921
vt 0.818181 0.314921
vt 0.090909 0.314921
vt 0.272727 0.314921
vt 0.454545 0.314921
vt 1.000000 0.314921
vt 0.727272 0.472382
vt 0.909090 0.472382
vt 0.181818 0.472382
vt 0.363636 0.472382
vt 0.545454 0.472382
vt 0.818181 0.000000
vt 0.727272 0.157461
vt 0.909090 0.157461
vt 0.636363 0.000000
vt 0.545454 0.157461
vt 0.090909 0.000000
vt 0.000000 0.157461
vt 0.181818 0.157461
vt 0.272727 0.000000
vt 0.363636 0.157461
vt 0.454545 0.000000
vt 0.636363 0.314921
vt 0.818181 0.314921
vt 0.090909 0.314921
vt 0.272727 0.314921
vt 0.454545 0.314921
vt 1.000000 0.314921
vt 0.727272 0.472382
vt 0.909090 0.472382
vt 0.181818 0.472382
vt 0.363636 0.472382
vt 0.545454 0.472382
vn 0.2217 -0.9392 0.2620
vn 0.6071 -0.7947 0.0000
vn -0.5202 -0.8416 0.1451
vn -0.5202 -0.8416 -0.1451
vn 0.2217 -0.9392 -0.2620
vn 0.9822 -0.1876 0.0000
vn 0.6000 -0.3708 0.7089
vn -0.9392 -0.2217 0.2620
vn -0.9392 -0.2217 -0.2620
vn 0.6000 -0.3708 -0.7089
vn 0.9392 0.2217 0.2620
vn -0.6000 0.3708 0.7089
vn -0.9822 0.1876 0.0000
vn -0.6000 0.3708 -0.7089
vn 0.9392 0.2217 -0.2620
vn 0.5202 0.8416 0.1451
vn -0.2217 0.9392 0.2620
vn -0.6071 0.7947 0.0000
vn -0.2217 0.9392 -0.2620
vn 0.5202 0.8416 -0.1451
usemtl Material
s off
f 1/1/1 2/2/1 3/3/1
f 2/2/2 1/4/2 6/5/2
f 1/6/3 3/7/3 4/8/3
f 1/9/4 4/8/4 5/10/4
f 1/11/5 5/10/5 6/5/5
f 2/2/6 6/5/6 11/12/6
f 3/3/7 2/2/7 7/13/7
f 4/8/8 3/7/8 8/14/8
f 5/10/9 4/8/9 9/15/9
f 6/5/10 5/10/10 10/16/10
f 2/2/11 11/12/11 7/13/11
f 3/3/12 7/13/12 8/17/12
f 4/8/13 8/14/13 9/15/13
f 5/10/14 9/15/14 10/16/14
f 6/5/15 10/16/15 11/12/15
f 7/13/16 11/12/16 12/18/16
f 8/17/17 7/13/17 12/19/17
f 9/15/18 8/14/18 12/20/18
f 10/16/19 9/15/19 12/21/19
f 11/12/20 10/16/20 12/22/20
f 13/23/1 14/24/1 15/25/1
f 14/24/2 13/26/2 18/27/2
f 13/28/3 15/29/3 16/30/3
f 13/31/4 16/30/4 17/32/4
f 13/33/5 17/32/5 18/27/5
f 14/24/6 18/27/6 23/34/6
f 15/25/7 14/24/7 19/35/7
f 16/30/8 15/29/8 20/36/8
f 17/32/9 16/30/9 21/37/9
f 18/27/10 17/32/10 22/38/10
f 14/24/11 23/34/11 19/35/11
f 15/25/12 19/35/12 20/39/12
f 16/30/13 20/36/13 21/37/13
f 17/32/14 21/37/14 22/38/14
f 18/27/15 22/38/15 23/34/15
f 19/35/16 23/34/16 24/40/16
f 20/39/17 19/35/17 24/41/17
f 21/37/18 20/36/18 24/42/18
f 22/38/19 21/37/19 24/43/19
f 23/34/20 22/38/20 24/44/20
