# Blender v2.81 (sub 16) OBJ File: 'polytopia_Models.blend'
# www.blender.org
mtllib gold.mtl
o Icosphere
v -0.045546 2.824429 0.312275
v 0.117877 2.949275 0.431008
v -0.107967 2.949275 0.504390
v -0.247550 2.949275 0.312275
v -0.107967 2.949275 0.120160
v 0.117877 2.949275 0.193543
v 0.016875 3.151279 0.504390
v -0.208970 3.151279 0.431008
v -0.208970 3.151279 0.193543
v 0.016875 3.151279 0.120160
v 0.156458 3.151279 0.312275
v -0.045546 3.276125 0.312275
v 0.311593 2.163244 0.661555
v 0.475017 2.288089 0.780288
v 0.249173 2.288089 0.853670
v 0.109590 2.288089 0.661555
v 0.249173 2.288089 0.469440
v 0.475017 2.288089 0.542822
v 0.374014 2.490094 0.853670
v 0.148170 2.490094 0.780288
v 0.148170 2.490094 0.542822
v 0.374014 2.490094 0.469440
v 0.513597 2.490094 0.661555
v 0.311593 2.614939 0.661555
v -0.166758 2.354783 0.582532
v -0.003335 2.479628 0.701264
v -0.229179 2.479628 0.774647
v -0.368762 2.479628 0.582532
v -0.229179 2.479628 0.390417
v -0.003335 2.479628 0.463799
v -0.104338 2.681633 0.774647
v -0.330182 2.681633 0.701264
v -0.330182 2.681633 0.463799
v -0.104338 2.681633 0.390417
v 0.035245 2.681633 0.582532
v -0.166758 2.806478 0.582532
vt 0.818181 0.000000
vt 0.727272 0.157461
vt 0.909090 0.157461
vt 0.636363 0.000000
vt 0.545454 0.157461
vt 0.090909 0.000000
vt 0.000000 0.157461
vt 0.181818 0.157461
vt 0.272727 0.000000
vt 0.363636 0.157461
vt 0.454545 0.000000
vt 0.636363 0.314921
vt 0.818181 0.314921
vt 0.090909 0.314921
vt 0.272727 0.314921
vt 0.454545 0.314921
vt 1.000000 0.314921
vt 0.727272 0.472382
vt 0.909090 0.472382
vt 0.181818 0.472382
vt 0.363636 0.472382
vt 0.545454 0.472382
vt 0.818181 0.000000
vt 0.727272 0.157461
vt 0.909090 0.157461
vt 0.636363 0.000000
vt 0.545454 0.157461
vt 0.090909 0.000000
vt 0.000000 0.157461
vt 0.181818 0.157461
vt 0.272727 0.000000
vt 0.363636 0.157461
vt 0.454545 0.000000
vt 0.636363 0.314921
vt 0.818181 0.314921
vt 0.090909 0.314921
vt 0.272727 0.314921
vt 0.454545 0.314921
vt 1.000000 0.314921
vt 0.727272 0.472382
vt 0.909090 0.472382
vt 0.181818 0.472382
vt 0.363636 0.472382
vt 0.545454 0.472382
vt 0.818181 0.000000
vt 0.727272 0.157461
vt 0.909090 0.157461
vt 0.636363 0.000000
vt 0.545454 0.157461
vt 0.090909 0.000000
vt 0.000000 0.157461
vt 0.181818 0.157461
vt 0.272727 0.000000
vt 0.363636 0.157461
vt 0.454545 0.000000
vt 0.636363 0.314921
vt 0.818181 0.314921
vt 0.090909 0.314921
vt 0.272727 0.314921
vt 0.454545 0.314921
vt 1.000000 0.314921
vt 0.727272 0.472382
vt 0.909090 0.472382
vt 0.181818 0.472382
vt 0.363636 0.472382
vt 0.545454 0.472382
vn 0.1876 -0.7947 0.5774
vn 0.6071 -0.7947 0.0000
vn -0.4911 -0.7947 0.3568
vn -0.4911 -0.7947 -0.3568
vn 0.1876 -0.7947 -0.5774
vn 0.9822 -0.1876 0.0000
vn 0.3035 -0.1876 0.9342
vn -0.7946 -0.1876 0.5774
vn -0.7946 -0.1876 -0.5774
vn 0.3035 -0.1876 -0.9342
vn 0.7947 0.1876 0.5774
vn -0.3035 0.1876 0.9342
vn -0.9822 0.1876 0.0000
vn -0.3035 0.1876 -0.9342
vn 0.7947 0.1876 -0.5774
vn 0.4911 0.7947 0.3568
vn -0.1876 0.7946 0.5774
vn -0.6071 0.7947 0.0000
vn -0.1876 0.7946 -0.5774
vn 0.4911 0.7947 -0.3568
vn 0.7946 0.1876 0.5774
vn 0.7946 0.1876 -0.5774
vn -0.1876 0.7947 0.5774
vn -0.1876 0.7947 -0.5774
usemtl Material
s off
f 1/1/1 2/2/1 3/3/1
f 2/2/2 1/4/2 6/5/2
f 1/6/3 3/7/3 4/8/3
f 1/9/4 4/8/4 5/10/4
f 1/11/5 5/10/5 6/5/5
f 2/2/6 6/5/6 11/12/6
f 3/3/7 2/2/7 7/13/7
f 4/8/8 3/7/8 8/14/8
f 5/10/9 4/8/9 9/15/9
f 6/5/10 5/10/10 10/16/10
f 2/2/11 11/12/11 7/13/11
f 3/3/12 7/13/12 8/17/12
f 4/8/13 8/14/13 9/15/13
f 5/10/14 9/15/14 10/16/14
f 6/5/15 10/16/15 11/12/15
f 7/13/16 11/12/16 12/18/16
f 8/17/17 7/13/17 12/19/17
f 9/15/18 8/14/18 12/20/18
f 10/16/19 9/15/19 12/21/19
f 11/12/20 10/16/20 12/22/20
f 13/23/1 14/24/1 15/25/1
f 14/24/2 13/26/2 18/27/2
f 13/28/3 15/29/3 16/30/3
f 13/31/4 16/30/4 17/32/4
f 13/33/5 17/32/5 18/27/5
f 14/24/6 18/27/6 23/34/6
f 15/25/7 14/24/7 19/35/7
f 16/30/8 15/29/8 20/36/8
f 17/32/9 16/30/9 21/37/9
f 18/27/10 17/32/10 22/38/10
f 14/24/21 23/34/21 19/35/21
f 15/25/12 19/35/12 20/39/12
f 16/30/13 20/36/13 21/37/13
f 17/32/14 21/37/14 22/38/14
f 18/27/22 22/38/22 23/34/22
f 19/35/16 23/34/16 24/40/16
f 20/39/23 19/35/23 24/41/23
f 21/37/18 20/36/18 24/42/18
f 22/38/24 21/37/24 24/43/24
f 23/34/20 22/38/20 24/44/20
f 25/45/1 26/46/1 27/47/1
f 26/46/2 25/48/2 30/49/2
f 25/50/3 27/51/3 28/52/3
f 25/53/4 28/52/4 29/54/4
f 25/55/5 29/54/5 30/49/5
f 26/46/6 30/49/6 35/56/6
f 27/47/7 26/46/7 31/57/7
f 28/52/8 27/51/8 32/58/8
f 29/54/9 28/52/9 33/59/9
f 30/49/10 29/54/10 34/60/10
f 26/46/21 35/56/21 31/57/21
f 27/47/12 31/57/12 32/61/12
f 28/52/13 32/58/13 33/59/13
f 29/54/14 33/59/14 34/60/14
f 30/49/22 34/60/22 35/56/22
f 31/57/16 35/56/16 36/62/16
f 32/61/23 31/57/23 36/63/23
f 33/59/18 32/58/18 36/64/18
f 34/60/24 33/59/24 36/65/24
f 35/56/20 34/60/20 36/66/20
