# Blender v2.81 (sub 16) OBJ File: 'polytopia_Models.blend'
# www.blender.org
mtllib mountain.mtl
o mountain_Cube.017
v 1.000000 -0.000000 -1.000000
v 1.000000 0.000000 1.000000
v -1.000000 0.000000 1.000000
v -1.000000 -0.000000 -1.000000
v 1.000000 2.000000 -1.000000
v 0.999999 2.000000 1.000000
v -1.000000 2.000000 0.999999
v -1.000000 2.000000 -1.000000
v 1.000000 2.000000 -0.029316
v -1.000000 2.000000 -0.013166
v -0.036023 2.000000 -1.000000
v -0.001251 2.000000 1.000000
v -0.500626 2.000000 1.000000
v -1.000000 2.000000 0.493417
v 1.000000 2.000000 -0.514658
v 0.000000 4.002583 -0.000000
v 0.481989 2.000000 -1.000000
v -0.518012 2.000000 -1.000000
v -1.000000 2.000000 -0.506583
v 1.000000 2.000000 0.485342
v 0.499374 2.000000 1.000000
v -1.000000 1.814031 1.000000
v 0.999999 1.809983 1.000000
v 1.000000 1.832331 -1.000000
v -1.000000 1.814499 -1.000000
v 0.500000 3.002582 0.500000
v -0.717679 2.343791 0.729636
v -0.724464 2.330219 -0.686514
v 0.745696 2.311385 0.745839
v 0.742001 2.318775 -0.692236
vt 0.375000 0.750000
vt 0.625000 0.750000
vt 0.625000 1.000000
vt 0.375000 1.000000
vt 0.000000 0.000000
vt 0.000000 0.000000
vt 0.000000 0.000000
vt 0.000000 0.000000
vt 0.000000 0.000000
vt 0.000000 0.000000
vt 0.000000 0.000000
vt 0.000000 0.000000
vt 0.000000 0.000000
vt 0.000000 0.000000
vt 0.000000 0.000000
vt 0.000000 0.000000
vt 0.000000 0.000000
vt 0.000000 0.000000
vt 0.000000 0.000000
vt 0.000000 0.000000
vt 0.000000 0.000000
vt 0.000000 0.000000
vt 0.000000 0.000000
vt 0.000000 0.000000
vt 0.000000 0.000000
vt 0.000000 0.000000
vt 0.000000 0.000000
vt 0.000000 0.000000
vt 0.414524 0.500000
vt 0.415955 0.290955
vt 0.625000 0.500000
vt 0.417651 0.750000
vt 0.413600 0.538600
vt 0.500000 0.625000
vt 0.625000 0.750000
vt 0.413600 0.250000
vt 0.414524 0.039524
vt 0.625000 0.250000
vt 0.500000 0.250000
vt 0.665955 0.750000
vt 0.667651 0.542651
vt 0.875000 0.750000
vt 0.375000 0.000000
vt 0.375000 0.250000
vt 0.375000 0.250000
vt 0.375000 0.500000
vt 0.375000 0.500000
vt 0.375000 0.750000
vt 0.625000 0.500000
vt 0.625000 0.750000
vn -0.0000 -1.0000 0.0000
vn 0.0000 -0.0000 -1.0000
vn -0.0000 0.0000 1.0000
vn 1.0000 -0.0000 0.0000
vn -1.0000 -0.0000 -0.0000
vn -0.0006 0.3800 -0.9250
vn -0.0372 0.3895 0.9203
vn 0.9203 0.3896 -0.0367
vn -0.9177 0.3973 0.0006
vn 0.7760 0.6308 0.0005
vn 0.0011 0.6915 -0.7224
vn 0.0022 0.6249 0.7807
vn -0.7703 0.6376 -0.0010
usemtl GrassDark
s off
f 8/1/1 5/2/1 6/3/1 7/4/1
s 1
f 5/5/2 24/6/2 25/7/2 8/8/2 18/9/2 11/10/2 17/11/2
f 22/12/3 23/13/3 6/14/3 21/15/3 12/16/3 13/17/3 7/18/3
f 23/13/4 24/6/4 5/5/4 15/19/4 9/20/4 20/21/4 6/14/4
f 25/7/5 22/12/5 7/18/5 14/22/5 10/23/5 19/24/5 8/8/5
usemtl Dirt
f 1/25/1 2/26/1 3/27/1 4/28/1
f 1/25/4 24/6/4 23/13/4 2/26/4
f 2/26/3 23/13/3 22/12/3 3/27/3
f 3/27/5 22/12/5 25/7/5 4/28/5
f 25/7/2 24/6/2 1/25/2 4/28/2
usemtl Ant_Snowy
s off
f 30/29/6 28/30/6 16/31/6
f 27/32/7 29/33/7 26/34/7 16/35/7
f 29/36/8 30/37/8 16/38/8 26/39/8
f 28/40/9 27/41/9 16/42/9
usemtl rock
f 5/43/10 30/37/10 29/36/10 6/44/10
f 8/45/11 28/30/11 30/29/11 5/46/11
f 6/47/12 29/33/12 27/32/12 7/48/12
f 7/49/13 27/41/13 28/40/13 8/50/13
