# Blender v2.81 (sub 16) OBJ File: 'polytopia_Models.blend'
# www.blender.org
mtllib crop.mtl
o Cone.007
v 0.497954 2.014057 -0.806545
v 0.619368 2.014057 -0.685132
v 0.497954 2.014057 -0.563718
v 0.376541 2.014057 -0.685132
v 0.497954 2.380492 -0.685132
v -0.631428 2.014057 0.429187
v -0.510014 2.014057 0.550601
v -0.631428 2.014057 0.672014
v -0.752841 2.014057 0.550601
v -0.631428 2.380492 0.550601
v 0.424785 2.014057 0.429187
v 0.546198 2.014057 0.550601
v 0.424785 2.014057 0.672014
v 0.303371 2.014057 0.550601
v 0.424785 2.380492 0.550601
v -0.631428 2.014057 -0.557862
v -0.510014 2.014057 -0.436448
v -0.631428 2.014057 -0.315035
v -0.752841 2.014057 -0.436448
v -0.631428 2.380492 -0.436448
v 0.150780 2.014057 -0.382269
v 0.272193 2.014057 -0.260856
v 0.150780 2.014057 -0.139442
v 0.029367 2.014057 -0.260856
v 0.150780 2.380492 -0.260856
v -0.159648 2.014057 0.429187
v -0.038235 2.014057 0.550601
v -0.159648 2.014057 0.672014
v -0.281062 2.014057 0.550601
v -0.159648 2.380492 0.550601
v -0.292802 2.014057 -0.108911
v -0.171389 2.014057 0.012502
v -0.292802 2.014057 0.133915
v -0.414216 2.014057 0.012502
v -0.292802 2.380492 0.012502
v -0.243351 2.014057 -0.806545
v -0.121938 2.014057 -0.685132
v -0.243351 2.014057 -0.563718
v -0.364765 2.014057 -0.685132
v -0.243351 2.380492 -0.685132
v 0.497954 2.014057 -0.011914
v 0.619367 2.014057 0.109499
v 0.497954 2.014057 0.230913
v 0.376541 2.014057 0.109499
v 0.497954 2.380492 0.109499
vt 0.250000 0.490000
vt 0.250000 0.250000
vt 0.490000 0.250000
vt 0.250000 0.010000
vt 0.010000 0.250000
vt 0.750000 0.490000
vt 0.990000 0.250000
vt 0.750000 0.010000
vt 0.510000 0.250000
vt 0.250000 0.490000
vt 0.250000 0.250000
vt 0.490000 0.250000
vt 0.250000 0.010000
vt 0.010000 0.250000
vt 0.750000 0.490000
vt 0.990000 0.250000
vt 0.750000 0.010000
vt 0.510000 0.250000
vt 0.250000 0.490000
vt 0.250000 0.250000
vt 0.490000 0.250000
vt 0.250000 0.010000
vt 0.010000 0.250000
vt 0.750000 0.490000
vt 0.990000 0.250000
vt 0.750000 0.010000
vt 0.510000 0.250000
vt 0.250000 0.490000
vt 0.250000 0.250000
vt 0.490000 0.250000
vt 0.250000 0.010000
vt 0.010000 0.250000
vt 0.750000 0.490000
vt 0.990000 0.250000
vt 0.750000 0.010000
vt 0.510000 0.250000
vt 0.250000 0.490000
vt 0.250000 0.250000
vt 0.490000 0.250000
vt 0.250000 0.010000
vt 0.010000 0.250000
vt 0.750000 0.490000
vt 0.990000 0.250000
vt 0.750000 0.010000
vt 0.510000 0.250000
vt 0.250000 0.490000
vt 0.250000 0.250000
vt 0.490000 0.250000
vt 0.250000 0.010000
vt 0.010000 0.250000
vt 0.750000 0.490000
vt 0.990000 0.250000
vt 0.750000 0.010000
vt 0.510000 0.250000
vt 0.250000 0.490000
vt 0.250000 0.250000
vt 0.490000 0.250000
vt 0.250000 0.010000
vt 0.010000 0.250000
vt 0.750000 0.490000
vt 0.990000 0.250000
vt 0.750000 0.010000
vt 0.510000 0.250000
vt 0.250000 0.490000
vt 0.250000 0.250000
vt 0.490000 0.250000
vt 0.250000 0.010000
vt 0.010000 0.250000
vt 0.750000 0.490000
vt 0.990000 0.250000
vt 0.750000 0.010000
vt 0.510000 0.250000
vt 0.250000 0.490000
vt 0.250000 0.250000
vt 0.490000 0.250000
vt 0.250000 0.010000
vt 0.010000 0.250000
vt 0.750000 0.490000
vt 0.990000 0.250000
vt 0.750000 0.010000
vt 0.510000 0.250000
vn 0.6885 0.2281 -0.6885
vn 0.6885 0.2281 0.6885
vn -0.6885 0.2281 0.6885
vn -0.6885 0.2281 -0.6885
vn 0.0000 -1.0000 0.0000
usemtl Material
s off
f 1/1/1 5/2/1 2/3/1
f 2/3/2 5/2/2 3/4/2
f 3/4/3 5/2/3 4/5/3
f 4/5/4 5/2/4 1/1/4
f 1/6/5 2/7/5 3/8/5 4/9/5
f 6/10/1 10/11/1 7/12/1
f 7/12/2 10/11/2 8/13/2
f 8/13/3 10/11/3 9/14/3
f 9/14/4 10/11/4 6/10/4
f 6/15/5 7/16/5 8/17/5 9/18/5
f 11/19/1 15/20/1 12/21/1
f 12/21/2 15/20/2 13/22/2
f 13/22/3 15/20/3 14/23/3
f 14/23/4 15/20/4 11/19/4
f 11/24/5 12/25/5 13/26/5 14/27/5
f 16/28/1 20/29/1 17/30/1
f 17/30/2 20/29/2 18/31/2
f 18/31/3 20/29/3 19/32/3
f 19/32/4 20/29/4 16/28/4
f 16/33/5 17/34/5 18/35/5 19/36/5
f 21/37/1 25/38/1 22/39/1
f 22/39/2 25/38/2 23/40/2
f 23/40/3 25/38/3 24/41/3
f 24/41/4 25/38/4 21/37/4
f 21/42/5 22/43/5 23/44/5 24/45/5
f 26/46/1 30/47/1 27/48/1
f 27/48/2 30/47/2 28/49/2
f 28/49/3 30/47/3 29/50/3
f 29/50/4 30/47/4 26/46/4
f 26/51/5 27/52/5 28/53/5 29/54/5
f 31/55/1 35/56/1 32/57/1
f 32/57/2 35/56/2 33/58/2
f 33/58/3 35/56/3 34/59/3
f 34/59/4 35/56/4 31/55/4
f 31/60/5 32/61/5 33/62/5 34/63/5
f 36/64/1 40/65/1 37/66/1
f 37/66/2 40/65/2 38/67/2
f 38/67/3 40/65/3 39/68/3
f 39/68/4 40/65/4 36/64/4
f 36/69/5 37/70/5 38/71/5 39/72/5
f 41/73/1 45/74/1 42/75/1
f 42/75/2 45/74/2 43/76/2
f 43/76/3 45/74/3 44/77/3
f 44/77/4 45/74/4 41/73/4
f 41/78/5 42/79/5 43/80/5 44/81/5
