# Blender v2.80 (sub 75) OBJ File: 'polytopia_Models.blend'
# www.blender.org
mtllib field.mtl
o grass_Cube
v 1.000000 -0.000000 -1.000000
v 1.000000 0.000000 1.000000
v -1.000000 0.000000 1.000000
v -1.000000 -0.000000 -1.000000
v 1.000000 2.000000 -1.000000
v 0.999999 2.000000 1.000000
v -1.000000 2.000000 0.999999
v -1.000000 2.000000 -1.000000
v 1.000000 2.000000 -0.029316
v -1.000000 2.000000 -0.013166
v -0.036023 2.000000 -1.000000
v -0.039963 1.931940 -0.020918
v -0.001251 2.000000 1.000000
v -0.500626 2.000000 1.000000
v -1.000000 2.000000 0.493417
v -0.519982 2.000000 -0.017042
v -0.020607 1.926092 0.489541
v -0.519982 2.036024 0.489540
v 0.418743 1.976704 0.568234
v 1.000000 2.000000 -0.514658
v 0.480018 1.954442 -0.025117
v 0.481989 2.000000 -1.000000
v -0.037008 2.000000 -0.755230
v 0.508497 2.030236 -0.536214
v -0.518012 2.000000 -1.000000
v -1.000000 2.000000 -0.506583
v -0.279973 1.951492 -0.018980
v -0.038978 1.951491 -0.265689
v -0.759991 2.000000 -0.015104
v -0.519982 1.980664 -0.510459
v -0.639986 1.991078 -0.262782
v -0.278495 1.975746 -0.632845
v 1.000000 2.000000 0.485342
v 0.499374 2.000000 1.000000
v 0.709371 2.000000 0.269459
v 0.208746 2.000000 0.784117
v 0.604373 2.034078 0.634729
v -1.000000 1.814031 1.000000
v 0.999999 1.809983 1.000000
v 1.000000 1.832331 -1.000000
v -1.000000 1.814499 -1.000000
vn 0.0000 -0.0000 -1.0000
vn -0.1096 0.9916 -0.0680
vn -0.0806 0.9952 -0.0561
vn -0.0730 0.9959 -0.0540
vn 0.0000 0.9897 -0.1433
vn -0.1142 0.9908 -0.0730
vn -0.0416 0.9887 0.1443
vn -0.0873 0.9962 0.0000
vn 0.0925 0.9956 0.0139
vn 0.0402 0.9992 -0.0075
vn 0.0185 0.9998 -0.0090
vn 0.0135 0.9991 0.0395
vn 0.0301 0.9978 0.0597
vn -0.2183 0.9525 -0.2124
vn -0.0310 0.9986 0.0417
vn -0.0435 0.9982 -0.0419
vn -0.0000 0.0000 1.0000
vn 1.0000 -0.0000 0.0000
vn -1.0000 -0.0000 -0.0000
vn 0.0000 0.9979 -0.0651
vn 0.0614 0.9981 -0.0000
vn 0.0264 0.9990 -0.0355
vn 0.0542 0.9873 0.1494
vn -0.0973 0.9910 0.0915
vn -0.0299 0.9975 -0.0633
vn 0.0000 1.0000 0.0000
vn -0.0500 0.9939 0.0983
vn 0.0453 0.9980 0.0441
vn -0.0000 -1.0000 0.0000
vn -0.0251 0.9985 0.0494
vn -0.0748 0.9972 0.0000
vn -0.0752 0.9947 -0.0707
vn 0.1389 0.9854 -0.0982
vn -0.0000 0.9975 0.0704
vn 0.2146 0.9748 0.0607
vn 0.2150 0.9766 0.0030
vn 0.0995 0.9914 -0.0846
usemtl GrassDark
s 1
f 5//1 40//1 41//1 8//1 25//1 11//1 22//1
f 9//2 21//3 19//4 35//2
f 13//5 17//5 14//5
f 19//6 12//6 17//6 13//6 36//6
f 12//7 21//7 24//7
f 21//8 9//8 20//8
f 30//9 31//9 27//9 12//9
f 8//10 26//10 31//10 30//10
f 26//11 10//11 29//11 31//11
f 30//12 32//12 25//12 8//12
f 12//13 28//13 32//13 30//13
f 36//14 37//14 35//14 19//14
f 13//15 34//15 37//15 36//15
f 19//4 21//3 12//16
f 38//17 39//17 6//17 34//17 13//17 14//17 7//17
f 39//18 40//18 5//18 20//18 9//18 33//18 6//18
f 41//19 38//19 7//19 15//19 10//19 26//19 8//19
usemtl Grass
f 5//20 22//20 24//20
f 24//21 20//21 5//21
f 37//22 33//22 9//22 35//22
f 24//23 21//23 20//23
f 24//24 23//24 28//24 12//24
f 24//25 22//25 23//25
f 22//26 11//26 23//26
f 28//27 23//27 32//27
f 34//28 6//28 33//28 37//28
usemtl Dirt
f 1//29 2//29 3//29 4//29
f 1//18 40//18 39//18 2//18
f 2//17 39//17 38//17 3//17
f 3//19 38//19 41//19 4//19
f 41//1 40//1 1//1 4//1
usemtl GrassLight.001
f 32//30 23//30 11//30 25//30
f 7//31 18//31 15//31
f 15//26 16//26 29//26 10//26
f 15//32 18//32 16//32
f 18//33 12//33 27//33 16//33
f 14//34 18//34 7//34
f 14//35 17//35 18//35
f 17//36 12//36 18//36
f 31//37 29//37 16//37 27//37
