# Blender v2.92.0 OBJ File: 'polytopia.blend'
# www.blender.org
mtllib OCEAN_ZERO.mtl
o Ocean_0_Cube.012
v -2.000000 -2.000000 2.000000
v -2.000000 1.767000 2.000000
v -2.000000 -2.000000 -2.000000
v -2.000000 1.767000 -2.000000
v 2.000000 -2.000000 2.000000
v 2.000000 1.767000 2.000000
v 2.000000 -2.000000 -2.000000
v 2.000000 1.767000 -2.000000
vt 0.125000 0.500000
vt 0.375000 0.500000
vt 0.375000 0.750000
vt 0.125000 0.750000
vt 0.625000 0.500000
vt 0.875000 0.500000
vt 0.875000 0.750000
vt 0.625000 0.750000
vn 0.0000 -1.0000 0.0000
vn 0.0000 1.0000 0.0000
usemtl Ocean
s off
f 3/1/1 7/2/1 5/3/1 1/4/1
f 8/5/2 4/6/2 2/7/2 6/8/2
