{
    "asset" : {
        "generator" : "Khronos glTF Blender I/O v1.6.16",
        "version" : "2.0"
    },
    "extensionsUsed" : [
        "KHR_materials_variants"
    ],
    "extensions" : {
        "KHR_materials_variants" : {
            "variants" : [
                {
                    "name" : "UnitSelector"
                }
            ]
        }
    },
    "scene" : 0,
    "scenes" : [
        {
            "extras" : {},
            "name" : "Scene",
            "nodes" : [
                0
            ]
        }
    ],
    "nodes" : [
        {
            "extras" : {
                "VariantMaterialArrayProperty" : {
                    "value" : [
                        {
                            "material" : {
                                "name" : "Selector_Unit",
                                "type" : "Material"
                            },
                            "name" : "UnitSelector"
                        }
                    ]
                }
            },
            "mesh" : 0,
            "name" : "Selector"
        }
    ],
    "materials" : [
        {
            "alphaMode" : "BLEND",
            "doubleSided" : true,
            "extras" : {},
            "name" : "Selector_Unit",
            "pbrMetallicRoughness" : {
                "baseColorTexture" : {
                    "index" : 0
                },
                "metallicFactor" : 0,
                "roughnessFactor" : 0.5
            }
        },
        {
            "alphaMode" : "BLEND",
            "doubleSided" : true,
            "extras" : {},
            "name" : "Selector_Tile",
            "pbrMetallicRoughness" : {
                "baseColorTexture" : {
                    "index" : 1
                },
                "metallicFactor" : 0,
                "roughnessFactor" : 0.5
            }
        }
    ],
    "meshes" : [
        {
            "extras" : {},
            "name" : "Selector",
            "primitives" : [
                {
                    "attributes" : {
                        "POSITION" : 0,
                        "NORMAL" : 1,
                        "TEXCOORD_0" : 2
                    },
                    "extensions" : {
                        "KHR_materials_variants" : {
                            "mappings" : [
                                {
                                    "material" : 0,
                                    "variants" : [
                                        0
                                    ]
                                }
                            ]
                        }
                    },
                    "indices" : 3,
                    "material" : 1
                }
            ]
        }
    ],
    "textures" : [
        {
            "sampler" : 0,
            "source" : 0
        },
        {
            "sampler" : 0,
            "source" : 1
        }
    ],
    "images" : [
        {
            "bufferView" : 3,
            "mimeType" : "image/png",
            "name" : "UnitSelector"
        },
        {
            "bufferView" : 5,
            "mimeType" : "image/png",
            "name" : "TileSelector"
        }
    ],
    "accessors" : [
        {
            "bufferView" : 0,
            "componentType" : 5126,
            "count" : 4,
            "max" : [
                2,
                2.0802838802337646,
                2
            ],
            "min" : [
                -2,
                2.0802838802337646,
                -2
            ],
            "type" : "VEC3"
        },
        {
            "bufferView" : 1,
            "componentType" : 5126,
            "count" : 4,
            "type" : "VEC3"
        },
        {
            "bufferView" : 2,
            "componentType" : 5126,
            "count" : 4,
            "type" : "VEC2"
        },
        {
            "bufferView" : 4,
            "componentType" : 5123,
            "count" : 6,
            "type" : "SCALAR"
        }
    ],
    "bufferViews" : [
        {
            "buffer" : 0,
            "byteLength" : 48,
            "byteOffset" : 0
        },
        {
            "buffer" : 0,
            "byteLength" : 48,
            "byteOffset" : 48
        },
        {
            "buffer" : 0,
            "byteLength" : 32,
            "byteOffset" : 96
        },
        {
            "buffer" : 0,
            "byteLength" : 10978,
            "byteOffset" : 128
        },
        {
            "buffer" : 0,
            "byteLength" : 12,
            "byteOffset" : 11108
        },
        {
            "buffer" : 0,
            "byteLength" : 1341,
            "byteOffset" : 11120
        }
    ],
    "samplers" : [
        {
            "magFilter" : 9729,
            "minFilter" : 9987
        }
    ],
    "buffers" : [
        {
            "byteLength" : 12464,
            "uri" : "data:application/octet-stream;base64,"
        }
    ]
}
