# Blender v2.92.0 OBJ File: 'polytopia.blend'
# www.blender.org
mtllib WATER_SIDES_FIVE.mtl
o Water_5_Cube.006
v -2.000000 1.766997 2.000000
v -2.000000 1.766997 -2.000000
v 2.000000 1.766997 2.000000
v 2.000000 1.766997 -2.000000
v -2.000000 0.172666 2.000000
v -2.000000 0.172666 -2.000000
v 2.000000 0.172666 -2.000000
v 2.000000 0.172666 2.000000
v -2.000000 -2.000000 2.000000
v -2.000000 -2.000000 -2.000000
v 2.000000 -2.000000 2.000000
v 2.000000 -2.000000 -2.000000
v -2.000000 0.172666 2.000000
v -2.000000 0.172666 -2.000000
v 2.000000 0.172666 -2.000000
v 2.000000 0.172666 2.000000
vt 0.015383 0.015383
vt 0.317951 0.015383
vt 0.317951 0.317951
vt 0.015383 0.317951
vt 0.846394 0.317951
vt 0.682049 0.317951
vt 0.682049 0.015383
vt 0.846394 0.015383
vt 0.708171 0.651284
vt 0.543826 0.651284
vt 0.543826 0.348716
vt 0.708171 0.348716
vt 0.513061 0.651284
vt 0.348716 0.651284
vt 0.348716 0.348716
vt 0.513061 0.348716
vt 0.903281 0.651284
vt 0.738936 0.651284
vt 0.738936 0.348716
vt 0.903281 0.348716
vt 0.015383 0.651284
vt 0.015383 0.348716
vt 0.317951 0.348716
vt 0.317951 0.651284
vt 0.135981 0.984617
vt 0.015383 0.984617
vt 0.015383 0.682049
vt 0.135981 0.682049
vt 0.590072 0.984617
vt 0.469473 0.984617
vt 0.469473 0.682049
vt 0.590072 0.682049
vt 0.348716 0.015383
vt 0.651284 0.015383
vt 0.651284 0.317951
vt 0.348716 0.317951
vn 0.0000 -1.0000 0.0000
vn 0.0000 0.0000 1.0000
vn 1.0000 0.0000 0.0000
vn 0.0000 0.0000 -1.0000
vn -1.0000 0.0000 0.0000
vn 0.0000 1.0000 0.0000
usemtl Sand
s off
f 10/1/1 12/2/1 11/3/1 9/4/1
f 11/5/2 16/6/2 13/7/2 9/8/2
f 12/9/3 15/10/3 16/11/3 11/12/3
f 10/13/4 14/14/4 15/15/4 12/16/4
f 9/17/5 13/18/5 14/19/5 10/20/5
f 16/21/6 15/22/6 14/23/6
f 16/21/6 14/23/6 13/24/6
usemtl Water
f 6/25/4 2/26/4 4/27/4 7/28/4
f 8/29/2 3/30/2 1/31/2 5/32/2
f 4/33/6 2/34/6 1/35/6 3/36/6
