# Blender v2.92.0 OBJ File: 'polytopia.blend'
# www.blender.org
mtllib WATER_SIDES_ZERO.mtl
o Water_0_Cube.005
v -2.000000 1.766997 2.000000
v -2.000000 1.766997 -2.000000
v 2.000000 1.766997 2.000000
v 2.000000 1.766997 -2.000000
v -2.000000 -2.000000 2.000000
v -2.000000 -2.000000 -2.000000
v 2.000000 -2.000000 2.000000
v 2.000000 -2.000000 -2.000000
v -2.000000 0.172666 2.000000
v -2.000000 0.172666 -2.000000
v 2.000000 0.172666 -2.000000
v 2.000000 0.172666 2.000000
vt 0.015383 0.015383
vt 0.317951 0.015383
vt 0.317951 0.317951
vt 0.015383 0.317951
vt 0.846394 0.317951
vt 0.682049 0.317951
vt 0.682049 0.015383
vt 0.846394 0.015383
vt 0.708171 0.651284
vt 0.543826 0.651284
vt 0.543826 0.348716
vt 0.708171 0.348716
vt 0.513061 0.651284
vt 0.348716 0.651284
vt 0.348716 0.348716
vt 0.513061 0.348716
vt 0.903281 0.651284
vt 0.738936 0.651284
vt 0.738936 0.348716
vt 0.903281 0.348716
vt 0.015383 0.651284
vt 0.015383 0.348716
vt 0.317951 0.348716
vt 0.317951 0.651284
vt 0.348716 0.015383
vt 0.651284 0.015383
vt 0.651284 0.317951
vt 0.348716 0.317951
vn 0.0000 -1.0000 0.0000
vn 0.0000 0.0000 1.0000
vn 1.0000 0.0000 0.0000
vn 0.0000 0.0000 -1.0000
vn -1.0000 0.0000 0.0000
vn 0.0000 1.0000 0.0000
usemtl Sand
s off
f 6/1/1 8/2/1 7/3/1 5/4/1
f 7/5/2 12/6/2 9/7/2 5/8/2
f 8/9/3 11/10/3 12/11/3 7/12/3
f 6/13/4 10/14/4 11/15/4 8/16/4
f 5/17/5 9/18/5 10/19/5 6/20/5
f 12/21/6 11/22/6 10/23/6
f 12/21/6 10/23/6 9/24/6
usemtl Water
f 4/25/6 2/26/6 1/27/6 3/28/6
